<svg xmlns="http://www.w3.org/2000/svg" width="92.090" height="34" viewBox="0 0 92.090 34" fill="none">
  <path d="M 22.668 11.334 L 22.668 0 L 11.334 0 L 11.334 4.293 C 11.334 5.072 10.702 5.704 9.923 5.704 L 0 5.704 L 0 17 L 9.923 17 C 10.702 17 11.334 17.632 11.334 18.411 L 11.334 21.255 C 11.334 22.035 10.702 22.666 9.923 22.666 L 0 22.666 L 0 34 L 11.334 34 L 11.334 29.745 C 11.334 28.965 11.965 28.334 12.745 28.334 L 22.668 28.334 L 22.668 17 L 12.745 17 C 11.965 17 11.334 16.368 11.334 15.589 L 11.334 12.745 C 11.334 11.965 11.965 11.334 12.745 11.334 L 22.668 11.334 Z" fill="currentColor" fill-rule="nonzero"/>
  <path d="M 64.758 28.71 L 63.275 28.71 C 58.79 28.71 55.141 25.06 55.141 20.576 L 55.141 19.092 C 55.141 14.608 58.79 10.958 63.275 10.958 L 64.758 10.958 C 69.243 10.958 72.893 14.606 72.893 19.092 L 72.893 20.576 C 72.893 25.06 69.243 28.71 64.758 28.71 Z M 63.275 15.155 C 61.103 15.155 59.338 16.922 59.338 19.092 L 59.338 20.576 C 59.338 22.746 61.104 24.513 63.275 24.513 L 64.758 24.513 C 66.929 24.513 68.696 22.746 68.696 20.576 L 68.696 19.092 C 68.696 16.922 66.929 15.155 64.758 15.155 L 63.275 15.155 Z" fill="currentColor" fill-rule="evenodd"/>
  <path d="M 27.892 23.42 C 28.103 27.155 31.019 28.138 31.805 28.366 L 31.799 28.366 C 32.593 28.597 33.682 28.714 35.518 28.714 C 38.371 28.714 40.37 28.253 41.653 27.341 C 42.924 26.438 43.516 25.076 43.516 23.208 C 43.516 21.648 43.024 20.43 42.067 19.567 C 41.199 18.784 39.919 18.295 38.352 18.169 L 34.694 17.809 C 34.116 17.746 33.654 17.582 33.336 17.309 C 33.013 17.032 32.849 16.653 32.849 16.194 C 32.849 15.695 33.037 15.284 33.389 15.001 C 33.737 14.722 34.231 14.58 34.824 14.58 L 36.106 14.58 C 36.799 14.58 37.345 14.711 37.742 15.007 C 38.116 15.285 38.341 15.698 38.445 16.235 L 43.293 16.235 C 43.178 14.519 42.468 13.208 41.187 12.324 C 39.901 11.434 38.448 10.977 35.675 10.977 C 34.267 10.977 33.313 11.084 32.55 11.293 C 31.789 11.504 28.419 12.468 28.419 16.374 C 28.419 17.886 28.894 19.099 29.772 19.97 C 30.652 20.843 31.95 21.384 33.619 21.521 L 37.243 21.881 C 37.636 21.92 38.084 22.022 38.436 22.258 C 38.798 22.502 39.053 22.885 39.053 23.459 C 39.053 23.981 38.865 24.404 38.496 24.69 C 38.133 24.972 37.613 25.109 36.97 25.109 L 35.176 25.109 C 34.476 25.109 33.929 24.976 33.519 24.674 C 33.133 24.389 32.891 23.97 32.75 23.42 L 27.892 23.42 Z" fill="currentColor" fill-rule="nonzero"/>
  <path d="M 87.565 5.637 L 92.09 5.637 L 92.09 10.145 L 88.162 10.145 C 87.832 10.145 87.565 9.878 87.565 9.548 L 87.565 5.637 Z" fill="currentColor" fill-rule="nonzero"/>
  <path d="M 86.342 15.58 L 87.252 15.58 C 87.581 15.58 87.848 15.847 87.848 16.177 L 87.848 28.334 L 92.09 28.334 L 92.09 11.351 L 86.342 11.351 L 86.342 15.58 Z" fill="currentColor" fill-rule="nonzero"/>
  <path d="M 78.943 16.177 L 78.943 28.334 L 74.703 28.334 L 74.703 17.235 C 74.703 13.985 77.338 11.35 80.588 11.35 L 84.958 11.35 L 84.958 15.58 L 79.54 15.58 C 79.211 15.58 78.943 15.847 78.943 16.177 Z" fill="currentColor" fill-rule="nonzero"/>
  <path d="M 51.318 24.138 L 53.893 24.138 L 53.895 24.137 L 53.895 28.334 L 51.274 28.334 C 47.881 28.334 45.132 25.584 45.132 22.191 L 45.132 6.825 L 49.374 6.825 L 49.374 10.753 C 49.374 11.081 49.641 11.35 49.971 11.35 L 53.893 11.35 L 53.893 15.58 L 49.971 15.58 C 49.641 15.58 49.372 15.847 49.372 16.177 L 49.372 22.193 C 49.372 23.267 50.243 24.138 51.318 24.138 Z" fill="currentColor" fill-rule="nonzero"/>
</svg>
